name rise49.5252peak65.1548fall88.8305.mot
datacolumns 19
datarows 17
range 7.07330500000000 7.09996900000000
endheader
time	ground_force1_vx	ground_force1_vy	ground_force1_vz	ground_force1_px	ground_force1_py	ground_force1_pz	ground_force2_vx	ground_force2_vy	ground_force2_vz	ground_force2_px	ground_force2_py	ground_force2_pz	ground_torque1_x	ground_torque1_y	ground_torque1_z	ground_torque2_x	ground_torque2_y	ground_torque2_z	
7.07330500000000	-39.59934300000000	787.39454699999999	57.89308400000000	0.16227900000000	0.00000000000000	0.11174700000000	-17.08522100000000	72.90732100000000	11.69362400000000	0.40716000000000	0.00000000000000	-0.07302300000000	0.00000000000000	27.48046900000000	0.00000000000000	0.00000000000000	7.60156900000000	0.00000000000000	
7.07497200000000	-40.21812600000000	785.53097200000002	57.84564000000000	0.16128300000000	0.00000000000000	0.11171300000000	-17.21878000000000	78.10845700000000	12.10022600000000	0.40694800000000	0.00000000000000	-0.07351000000000	0.00000000000000	27.44305100000000	0.00000000000000	0.00000000000000	7.91764200000000	0.00000000000000	
7.07663900000000	-40.85930200000000	783.57515000000001	57.77637700000000	0.16028000000000	0.00000000000000	0.11167800000000	-17.16085300000000	83.13315700000000	12.41433400000000	0.40685500000000	0.00000000000000	-0.07396800000000	0.00000000000000	27.40384000000000	0.00000000000000	0.00000000000000	8.18438000000000	0.00000000000000	
7.07829700000000	-41.52276500000000	781.52543500000002	57.68472400000000	0.15926900000000	0.00000000000000	0.11163900000000	-16.93384500000000	88.02291400000000	12.64632700000000	0.40688100000000	0.00000000000000	-0.07440100000000	0.00000000000000	27.36291100000000	0.00000000000000	0.00000000000000	8.40817700000000	0.00000000000000	
7.07996500000000	-42.20832800000000	779.38011100000006	57.57014300000000	0.15825400000000	0.00000000000000	0.11159800000000	-16.56237900000000	92.82725300000000	12.80805500000000	0.40702500000000	0.00000000000000	-0.07480800000000	0.00000000000000	27.32033500000000	0.00000000000000	0.00000000000000	8.59621900000000	0.00000000000000	
7.08163700000000	-42.91572300000000	777.13739599999997	57.43212800000000	0.15723600000000	0.00000000000000	0.11155400000000	-16.07123900000000	97.59889699999999	12.91172500000000	0.40728500000000	0.00000000000000	-0.07519300000000	0.00000000000000	27.27617600000000	0.00000000000000	0.00000000000000	8.75583500000000	0.00000000000000	
7.08330100000000	-43.64459800000000	774.79544499999997	57.27020800000000	0.15621700000000	0.00000000000000	0.11150700000000	-15.48365600000000	102.38949200000000	12.96894800000000	0.40765700000000	0.00000000000000	-0.07555600000000	0.00000000000000	27.23049300000000	0.00000000000000	0.00000000000000	8.89394500000000	0.00000000000000	
7.08497500000000	-44.39451900000000	772.35234800000001	57.08395100000000	0.15519900000000	0.00000000000000	0.11145700000000	-14.81999900000000	107.24613600000001	12.98999700000000	0.40813900000000	0.00000000000000	-0.07589900000000	0.00000000000000	27.18333700000000	0.00000000000000	0.00000000000000	9.01663100000000	0.00000000000000	
7.08663400000000	-45.16496600000000	769.80613800000003	56.87296200000000	0.15418400000000	0.00000000000000	0.11140300000000	-14.09691300000000	112.20882200000000	12.98329500000000	0.40872700000000	0.00000000000000	-0.07622200000000	0.00000000000000	27.13475000000000	0.00000000000000	0.00000000000000	9.12884300000000	0.00000000000000	
7.08829900000000	-45.95533500000000	767.15479100000005	56.63688600000000	0.15317300000000	0.00000000000000	0.11134600000000	-13.32688700000000	117.30885400000000	12.95513100000000	0.40941600000000	0.00000000000000	-0.07652900000000	0.00000000000000	27.08476400000000	0.00000000000000	0.00000000000000	9.23423600000000	0.00000000000000	
7.08996500000000	-46.76493300000000	764.39623200000005	56.37541000000000	0.15217000000000	0.00000000000000	0.11128500000000	-12.51820600000000	122.56815400000001	12.90957900000000	0.41020100000000	0.00000000000000	-0.07681800000000	0.00000000000000	27.03339900000000	0.00000000000000	0.00000000000000	9.33511900000000	0.00000000000000	
7.09165600000000	-47.59298400000000	761.52834199999995	56.08826100000000	0.15117400000000	0.00000000000000	0.11122100000000	-11.67522500000000	127.99938000000000	12.84860800000000	0.41107900000000	0.00000000000000	-0.07709200000000	0.00000000000000	26.98066400000000	0.00000000000000	0.00000000000000	9.43251900000000	0.00000000000000	
7.09330500000000	-48.43862100000000	758.54895499999998	55.77521300000000	0.15019000000000	0.00000000000000	0.11115200000000	-10.79888700000000	133.60666200000000	12.77231500000000	0.41204200000000	0.00000000000000	-0.07735100000000	0.00000000000000	26.92655100000000	0.00000000000000	0.00000000000000	9.52631600000000	0.00000000000000	
7.09496700000000	-49.30089200000000	755.45587300000000	55.43608200000000	0.14921700000000	0.00000000000000	0.11107900000000	-9.88739600000000	139.38682800000001	12.67926500000000	0.41308700000000	0.00000000000000	-0.07759700000000	0.00000000000000	26.87104000000000	0.00000000000000	0.00000000000000	9.61543700000000	0.00000000000000	
7.09663900000000	-50.17875600000000	752.24686499999996	55.07073000000000	0.14825800000000	0.00000000000000	0.11100200000000	-8.93697000000000	145.33089600000000	12.56687600000000	0.41420800000000	0.00000000000000	-0.07782900000000	0.00000000000000	26.81409600000000	0.00000000000000	0.00000000000000	9.69807700000000	0.00000000000000	
7.09830400000000	-51.07108400000000	748.91967399999999	54.67906700000000	0.14731500000000	0.00000000000000	0.11092100000000	-7.94260900000000	151.42570799999999	12.43181900000000	0.41539900000000	0.00000000000000	-0.07804900000000	0.00000000000000	26.75566400000000	0.00000000000000	0.00000000000000	9.77193700000000	0.00000000000000	
7.09996900000000	-51.97666200000000	745.47202800000002	54.26104600000000	0.14638800000000	0.00000000000000	0.11083500000000	-6.89880700000000	157.65552800000000	12.27040200000000	0.41665300000000	0.00000000000000	-0.07825800000000	0.00000000000000	26.69567400000000	0.00000000000000	0.00000000000000	9.83445000000000	0.00000000000000	
